<svg xmlns="http://www.w3.org/2000/svg" viewBox="0 0 120 66"><defs><style>.cls-1{isolation:isolate;}.cls-2{fill:#fff;}.cls-3{fill:#ffe400;}</style></defs><g id="Shape_353_1610_copy_2" data-name="Shape 353 1610 copy 2" class="cls-1"><g id="Shape_353_1610_copy_2-2" data-name="Shape 353 1610 copy 2"><path class="cls-2" d="M12.27,42.74C6.88,49.58,3.21,58,0,66H5.88c.56-1.51,1.16-3,1.8-4.58h6.94A41,41,0,0,1,14.5,66h5.87a59.56,59.56,0,0,0-2.16-23.26ZM9.77,56.83a53.66,53.66,0,0,1,3.85-6.65,30.61,30.61,0,0,1,1.08,6.65ZM42.22,42.74,40.75,49.1a21.18,21.18,0,0,0-6.4-6.35H27.76L22.37,66h6.72l3.65-16.14a16.06,16.06,0,0,1,5.47,10,.31.31,0,0,0,0,.1l-1.39,6h6.72l5.26-23.26ZM117.94,53.8A2.05,2.05,0,1,0,120,55.85,2.05,2.05,0,0,0,117.94,53.8Zm0,3.72a1.67,1.67,0,0,1,0-3.34,1.67,1.67,0,1,1,0,3.34ZM57.31,42.74H51.19L45.62,66h6.21c13.39,0,16-4.28,17.21-11.92C70.18,46.9,66.94,42.74,57.31,42.74Zm5.22,10.52c-.35,2.32-.51,7.53-9.15,6.91l2.89-11.81C60.7,48.47,63.23,48.78,62.53,53.26Zm56.22,2.15c0-.57-.44-.65-.73-.65h-.88v2.16h.49v-.84h.23l.53.84h.52l-.59-.92A.6.6,0,0,0,118.75,55.41Zm-.85.3h-.28v-.57h.29c.16,0,.33,0,.33.28S118.06,55.71,117.9,55.71ZM95.19,48.57c1.44.15,3.71-2.34,3.59-4.42A2.69,2.69,0,1,0,96.13,47,2.51,2.51,0,0,1,95.19,48.57Zm5.19,4.5c.74,1.31,2.8,3,3.81,4.13,1.79,1.71,1.26,3.37-.2,3.37H96.3L95,66h8.68c4.72,0,10-3.69,8.07-9.12-.55-1.62-3.09-4-4.18-5.25-1.81-1.72-1.13-3.37.31-3.37h6.53l1.15-5.52h-7.52C102.93,42.74,96.85,46.72,100.38,53.07ZM85.3,42.75h-.18A26.65,26.65,0,0,1,82,53.36c-.25.39-.51.76-.77,1.1a14.46,14.46,0,0,1-2.38-11.57,1.36,1.36,0,0,0,0-.17l-6.43,0v0l0,.2a19.37,19.37,0,0,0,3.52,16l-.43.21a14.83,14.83,0,0,1-5.92,1L68,65.9l.58,0h.2a27.12,27.12,0,0,0,8.6-1.27,19.63,19.63,0,0,0,3.73-1.69,15.81,15.81,0,0,0,2-1.37l.54-.44c4.15-3.58,7-9.41,7.55-18.35V42.7H85.3Z" transform="translate(0 0)"/></g></g><g id="Shape_353_1610_copy_2-3" data-name="Shape 353 1610 copy 2" class="cls-1"><g id="Shape_353_1610_copy_2-4" data-name="Shape 353 1610 copy 2"><path class="cls-3" d="M87.59,0c4.73,9.55-7.17,15.8-16.48,17.44-10.3,1.82-27,2.17-34,4.66-10,3.56-11.38,10.85-9,16,2.59-18.45,45.7-6.89,59.49-18.72C98.56,10,92.63,1.28,87.59,0ZM99.08,15.5c-2.07,3.75-6.51,7.37-10.72,9.65-15.46,8.39-42.18,1.64-51.67,7.66a9.71,9.71,0,0,0-4,6.22c1.24-1.81,4-3.27,9.71-3.79,6-.54,37,3,47-3.28C96.93,27.93,100.36,19.76,99.08,15.5Z" transform="translate(0 0)"/></g></g></svg>